<svg width="24" height="20" viewBox="0 0 24 20" fill="none" xmlns="http://www.w3.org/2000/svg"><path fill-rule="evenodd" clip-rule="evenodd" d="M8 2C8 0.895431 8.89543 0 10 0H22C23.1046 0 24 0.895431 24 2C24 3.10457 23.1046 4 22 4H10C8.89543 4 8 3.10457 8 2ZM4 10C4 8.89543 4.89543 8 6 8H18C19.1046 8 20 8.89543 20 10C20 11.1046 19.1046 12 18 12H6C4.89543 12 4 11.1046 4 10ZM2 16C0.895431 16 0 16.8954 0 18C0 19.1046 0.895431 20 2 20H14C15.1046 20 16 19.1046 16 18C16 16.8954 15.1046 16 14 16H2Z" fill="white"></path></svg>