<svg width="24" height="21" viewBox="0 0 24 21" fill="none" xmlns="http://www.w3.org/2000/svg"><path d="M12.1058 20.3636C11.9655 20.3636 11.7902 20.3286 11.65 20.2585C11.6149 20.2235 11.5799 20.2235 11.5448 20.1885L11.2643 19.9783C10.5281 19.4878 8.84524 18.2967 7.72335 17.4209C3.41106 14.0928 1.23739 11.6755 0.816679 9.85378C0.606324 9.25822 0.501146 8.52253 0.501146 7.78684C0.466087 5.78996 1.23739 3.89819 2.56964 2.53191C3.79671 1.30576 5.37438 0.605098 7.05722 0.605098C8.95042 0.605098 10.7034 1.37582 11.9305 2.7421C13.1575 1.34079 14.8754 0.5 16.7686 0.5H16.9089C20.4849 0.5 23.4649 3.65296 23.5 7.50657C23.5 8.24226 23.3948 8.97795 23.2195 9.67861C22.8689 11.4303 20.6953 13.9877 16.5232 17.3508C14.9105 18.6821 13.6133 19.663 12.6667 20.2585C12.4563 20.3286 12.281 20.3636 12.1058 20.3636Z" fill="white"></path></svg>