<svg width="24" height="23" viewBox="0 0 24 23" fill="none" xmlns="http://www.w3.org/2000/svg">
<path d="M11.5925 20.1356L6.41021 22.7042C4.91429 23.4396 3.88852 22.7042 4.12359 21.0522L4.85018 16.0643C4.94635 15.4035 4.63648 14.4656 4.17702 13.9753L0.661616 10.3729C-0.492376 9.17921 -0.097027 7.97486 1.5378 7.69775L6.47432 6.84511C7.1368 6.72787 7.93818 6.15234 8.25873 5.55549L10.5881 1.1111C11.3574 -0.370366 12.6289 -0.370366 13.409 1.1111L15.7383 5.55549C16.0482 6.15234 16.8496 6.73853 17.5227 6.84511L22.4592 7.69775C24.1048 7.97486 24.4894 9.18987 23.3354 10.3836L19.8307 13.986C19.3606 14.4656 19.0614 15.4141 19.1575 16.0749L19.8841 21.0629C20.1192 22.7149 19.0934 23.4503 17.5975 22.7149L12.4152 20.1463C12.1481 20.0078 11.8489 20.0078 11.5925 20.1356Z" fill="#FFFFFE"></path>
</svg>